<svg xmlns="http://www.w3.org/2000/svg" width="42.125" height="44.813" viewBox="0 0 42.125 44.813">
  <defs>
    <style>
      .cls-1 {
        fill: #2fa2e5;
        fill-rule: evenodd;
      }
    </style>
  </defs>
  <path id="createve.svg" class="cls-1" d="M826.879,373.9H824V371h-8.614V415.2H824V376.988h1.408v8.561a1.473,1.473,0,1,0,2.943,0v-10.1A1.509,1.509,0,0,0,826.879,373.9Zm-5.822,38.215h-2.73V390.245h2.73v21.871Zm-2.73-24.957V374.082h2.73v13.077h-2.73Zm12.506,28.647h11.31V371h-11.31v44.81Zm8.368-41.724v38.637h-5.426v-19.8h1.845a1.545,1.545,0,0,0,0-3.087h-1.845v-1.513h1.472a1.545,1.545,0,0,0,0-3.087h-1.472v-1.64h1.472a1.545,1.545,0,0,0,0-3.086h-1.472v-1.254h1.845a1.545,1.545,0,0,0,0-3.087h-1.845v-2.08H839.2Zm-33.7,18.656a5.616,5.616,0,0,0-5.471,5.739v10.987a5.478,5.478,0,1,0,10.943,0V398.477A5.616,5.616,0,0,0,805.5,392.738Zm0,3.087a2.6,2.6,0,0,1,2.529,2.652v3.95h-5.057v-3.95A2.6,2.6,0,0,1,805.5,395.825Zm0,16.291a2.6,2.6,0,0,1-2.528-2.652v-3.95h5.057v3.95A2.6,2.6,0,0,1,805.5,412.116Z" transform="translate(-800.031 -371)"/>
</svg>
