<svg xmlns="http://www.w3.org/2000/svg" width="34.531" height="62.844" viewBox="0 0 34.531 62.844">
  <defs>
    <style>
      .cls-1 {
        fill: #2fa2e5;
        fill-rule: evenodd;
      }
    </style>
  </defs>
  <path id="digital.svg" class="cls-1" d="M375.466,387.5v8.841a3.771,3.771,0,0,0,7.542,0V387.5A3.771,3.771,0,0,0,375.466,387.5Zm3.085,0a0.686,0.686,0,0,1,1.372,0v8.841c0,0.75-1.372.75-1.372,0V387.5Zm20.922-33.513-2.83,1.22c0.47,1.083,1.416,4.255.166,5.884-1.107,1.44-3.831,1.4-5.924,1.114a10.4,10.4,0,0,0-8.766,2.321c-3.681,3.3-4.4,8.975-4.532,11.622A13.02,13.02,0,0,0,366,389.01v14.816a13.11,13.11,0,0,0,26.22,0V389.01a13.02,13.02,0,0,0-11.538-12.852c0.126-2.256.727-6.863,3.508-9.355a7.381,7.381,0,0,1,6.275-1.562c4.236,0.581,7.2-.19,8.81-2.3C401.82,359.605,399.72,354.556,399.473,353.991ZM389.13,389.01v14.816a10.025,10.025,0,0,1-20.05,0V389.01A10.025,10.025,0,0,1,389.13,389.01Z" transform="translate(-366 -354)"/>
</svg>
