<svg xmlns="http://www.w3.org/2000/svg" width="46.94" height="34.062" viewBox="0 0 46.94 34.062">
  <defs>
    <style>
      .cls-1 {
        fill: #2fa2e5;
        fill-rule: evenodd;
      }
    </style>
  </defs>
  <path id="media.svg" class="cls-1" d="M1258.65,380.965h-44.31a1.3,1.3,0,0,0-1.32,1.273v25.694a1.3,1.3,0,0,0,1.32,1.273h14.46l-2.54,3.878a1.235,1.235,0,0,0-.04,1.3,1.317,1.317,0,0,0,1.15.658h18.43a1.317,1.317,0,0,0,1.15-.658,1.235,1.235,0,0,0-.04-1.3l-2.54-3.878h14.28a1.3,1.3,0,0,0,1.32-1.273V382.238A1.3,1.3,0,0,0,1258.65,380.965Zm-1.31,2.546v17.155h-41.68V383.511h41.68Zm-13.94,28.98h-13.63l2.15-3.286h9.33Zm-27.74-5.833v-3.445h41.68v3.445h-41.68Zm19.95-.935h1.95v-1.881h-1.95v1.881Z" transform="translate(-1213.03 -380.969)"/>
</svg>
